<svg width="80" height="80" viewBox="0 0 80 80" fill="none" xmlns="http://www.w3.org/2000/svg">
<path opacity="0.4" d="M62.5 26.667V33.667C61.0333 33.467 59.3667 33.367 57.5 33.3337V26.667C57.5 16.167 54.5333 9.16699 40 9.16699C25.4667 9.16699 22.5 16.167 22.5 26.667V33.3337C20.6333 33.367 18.9667 33.467 17.5 33.667V26.667C17.5 17.0003 19.8333 4.16699 40 4.16699C60.1667 4.16699 62.5 17.0003 62.5 26.667Z" fill="#08458C"/>
<path d="M73.3332 49.9997V56.6663C73.3332 69.9997 69.9998 73.333 56.6665 73.333H23.3332C9.99984 73.333 6.6665 69.9997 6.6665 56.6663V49.9997C6.6665 38.8663 8.99984 34.6997 17.4998 33.6663C18.9665 33.4663 20.6332 33.3663 22.4998 33.333H57.4998C59.3665 33.3663 61.0332 33.4663 62.4998 33.6663C70.9998 34.6997 73.3332 38.8663 73.3332 49.9997Z" fill="#08458C"/>
<path d="M26.6668 56.663C26.2335 56.663 25.8002 56.563 25.4002 56.3963C24.9668 56.2296 24.6335 55.9963 24.3002 55.6963C23.7002 55.063 23.3335 54.1963 23.3335 53.3296C23.3335 52.8963 23.4335 52.463 23.6002 52.063C23.7668 51.663 24.0002 51.2963 24.3002 50.963C24.6335 50.663 24.9668 50.4296 25.4002 50.263C26.6335 49.7296 28.1002 50.0296 29.0335 50.963C29.3335 51.2963 29.5668 51.663 29.7335 52.063C29.9002 52.463 30.0002 52.8963 30.0002 53.3296C30.0002 54.1963 29.6335 55.063 29.0335 55.6963C28.4002 56.2963 27.5335 56.663 26.6668 56.663ZM40.0002 56.6663C39.1002 56.6663 38.2668 56.2996 37.6335 55.6996C37.3335 55.3663 37.1002 54.9996 36.9335 54.5996C36.7623 54.199 36.6717 53.7686 36.6668 53.333C36.6668 52.433 37.0335 51.5996 37.6335 50.9663C38.8668 49.733 41.1002 49.733 42.3668 50.9663C42.9668 51.5996 43.3335 52.433 43.3335 53.333C43.3335 53.7663 43.2335 54.1996 43.0668 54.5996C42.9002 54.9996 42.6668 55.3663 42.3668 55.6996C41.7335 56.2996 40.8668 56.6663 40.0002 56.6663ZM53.3335 56.6663C52.4668 56.6663 51.6002 56.2996 50.9668 55.6996C50.3668 55.0663 50.0002 54.233 50.0002 53.333C50.0002 52.433 50.3668 51.5996 50.9668 50.9663C52.2335 49.733 54.4668 49.733 55.7002 50.9663C55.8335 51.133 55.9668 51.2996 56.1002 51.4996C56.2335 51.6663 56.3335 51.8663 56.4002 52.0663C56.5002 52.2663 56.5668 52.4663 56.6002 52.6663C56.6335 52.8996 56.6668 53.133 56.6668 53.333C56.6668 54.1996 56.3002 55.0663 55.7002 55.6996C55.0668 56.2996 54.2002 56.6663 53.3335 56.6663Z" fill="#F8EE4A"/>
</svg>
