<svg width="80" height="80" viewBox="0 0 80 80" fill="none" xmlns="http://www.w3.org/2000/svg">
<path d="M65.9629 14.0664C56.0963 4.23307 40.0963 4.23307 30.2963 14.0664C23.3963 20.8997 21.3296 30.7331 23.9963 39.3997L8.32959 55.0664C7.22959 56.1997 6.46292 58.4331 6.69626 60.0331L7.69626 67.2997C8.06292 69.6997 10.2963 71.9664 12.6963 72.2997L19.9629 73.2997C21.5629 73.5331 23.7963 72.7997 24.9296 71.6331L27.6629 68.8997C28.3296 68.2664 28.3296 67.1997 27.6629 66.5331L21.1963 60.0664C20.7313 59.596 20.4706 58.9612 20.4706 58.2997C20.4706 57.6383 20.7313 57.0035 21.1963 56.5331C22.1629 55.5664 23.7629 55.5664 24.7296 56.5331L31.2296 63.0331C31.8629 63.6664 32.9296 63.6664 33.5629 63.0331L40.6296 55.9997C49.2629 58.6997 59.0963 56.5997 65.9629 49.7664C75.7963 39.9331 75.7963 23.8997 65.9629 14.0664ZM48.3296 39.9997C46.1195 39.9997 43.9998 39.1218 42.437 37.559C40.8742 35.9962 39.9963 33.8765 39.9963 31.6664C39.9963 29.4563 40.8742 27.3367 42.437 25.7739C43.9998 24.211 46.1195 23.3331 48.3296 23.3331C50.5397 23.3331 52.6593 24.211 54.2221 25.7739C55.785 27.3367 56.6629 29.4563 56.6629 31.6664C56.6629 33.8765 55.785 35.9962 54.2221 37.559C52.6593 39.1218 50.5397 39.9997 48.3296 39.9997Z" fill="#08458C"/>
<path d="M48.3333 39.9997C50.5435 39.9997 52.6631 39.1217 54.2259 37.5589C55.7887 35.9961 56.6667 33.8765 56.6667 31.6663C56.6667 29.4562 55.7887 27.3366 54.2259 25.7738C52.6631 24.211 50.5435 23.333 48.3333 23.333C46.1232 23.333 44.0036 24.211 42.4408 25.7738C40.878 27.3366 40 29.4562 40 31.6663C40 33.8765 40.878 35.9961 42.4408 37.5589C44.0036 39.1217 46.1232 39.9997 48.3333 39.9997Z" fill="#F8EE4A"/>
</svg>
