<svg xmlns="http://www.w3.org/2000/svg" width="80" height="80" viewBox="0 0 80 80" fill="none">
<path opacity="0.55" d="M64.9998 26.6667C67.21 26.6667 69.3296 25.7887 70.8924 24.2259C72.4552 22.6631 73.3332 20.5435 73.3332 18.3333C73.3332 16.1232 72.4552 14.0036 70.8924 12.4408C69.3296 10.878 67.21 10 64.9998 10C62.7897 10 60.6701 10.878 59.1073 12.4408C57.5445 14.0036 56.6665 16.1232 56.6665 18.3333C56.6665 20.5435 57.5445 22.6631 59.1073 24.2259C60.6701 25.7887 62.7897 26.6667 64.9998 26.6667Z" fill="#08458C"/>
<path d="M69.0665 31.0399C71.1665 30.3732 73.3332 32.0065 73.3332 34.2399V51.7065C73.3332 63.3732 66.6665 68.3732 56.6665 68.3732H23.3332C13.3332 68.3732 6.6665 63.3732 6.6665 51.7065V28.3732C6.6665 16.7065 13.3332 11.7065 23.3332 11.7065H48.6998C50.8665 11.7065 52.3332 13.7065 51.9332 15.8065C51.5332 17.7732 51.5998 19.8732 52.1998 22.0399C52.825 24.2507 54.0139 26.261 55.6501 27.8739C57.2863 29.4867 59.3136 30.6466 61.5332 31.2399C64.1665 31.9065 66.7332 31.7732 69.0665 31.0399Z" fill="#08458C"/>
<path d="M39.9967 42.8969C37.1967 42.8969 34.3634 42.0302 32.1967 40.2635L21.7634 31.9302C21.2782 31.5089 20.9744 30.9166 20.9154 30.2768C20.8563 29.637 21.0465 28.9991 21.4463 28.4961C21.8461 27.9931 22.4247 27.6639 23.0613 27.5771C23.698 27.4903 24.3435 27.6526 24.8634 28.0302L35.2967 36.3635C37.8301 38.3969 42.1301 38.3969 44.6634 36.3635L48.5967 33.2302C49.6634 32.3635 51.2634 32.5302 52.0967 33.6302C52.9634 34.6969 52.7967 36.2969 51.6967 37.1302L47.7634 40.2635C45.6301 42.0302 42.7967 42.8969 39.9967 42.8969Z" fill="#F8EE4A"/>
</svg>