<svg width="80" height="80" viewBox="0 0 80 80" fill="none" xmlns="http://www.w3.org/2000/svg">
<g id="icon-link">
<rect id="bg" width="80" height="80" fill="white"/>
<g id="&#240;&#159;&#166;&#134; icon &#34;link">
<g id="Group">
<path id="Vector" d="M21.0169 40.0018C21.0169 38.3617 22.377 37.0016 24.0172 37.0016H36.0182V22.0003C36.0182 19.8001 34.2181 18 32.0178 18H23.0971C10.4961 18 -0.464842 28.3208 0.0151979 40.8819C0.255218 46.6024 2.65542 51.7628 6.45573 55.5631C10.4561 59.5234 15.9365 62.0036 22.017 62.0036H32.0178C34.2181 62.0036 36.0182 60.2035 36.0182 58.0033V43.0021H24.0172C22.377 43.0021 21.0169 41.6419 21.0169 40.0018Z" fill="#08458C"/>
<path id="Vector_2" d="M73.582 24.4405C69.5816 20.4802 64.1012 18 58.0207 18H48.0199C45.8197 18 44.0195 19.8001 44.0195 22.0003V37.0016H56.0205C57.6607 37.0016 59.0208 38.3617 59.0208 40.0018C59.0208 41.6419 57.6607 43.0021 56.0205 43.0021H44.0195V58.0033C44.0195 60.2035 45.8197 62.0036 48.0199 62.0036H56.9406C69.5416 62.0036 80.5025 51.6828 79.9825 39.1217C79.7825 33.4013 77.3423 28.2408 73.582 24.4405Z" fill="#08458C"/>
<path id="Vector_3" d="M44.0192 37.002H36.0186V43.0024H44.0192V37.002Z" fill="#fff212"/>
</g>
</g>
</g>
</svg>
