<svg width="86" height="78" viewBox="0 0 86 78" fill="none" xmlns="http://www.w3.org/2000/svg">
<path id="Vector" d="M82.8598 32.0405L39.7698 75.1305C38.0698 76.8305 35.8098 77.7705 33.4098 77.7705H33.3998C30.9898 77.7705 28.7298 76.8305 27.0298 75.1205L3.13977 51.1605C1.43977 49.4605 0.509766 47.2005 0.509766 44.8005C0.509766 42.4005 1.44976 40.1405 3.14977 38.4405C4.84976 36.7405 7.10977 35.8005 9.50977 35.8005C11.9098 35.8005 14.1698 36.7405 15.8698 38.4405L33.4398 56.0005L70.1298 19.3105C71.8298 17.6105 74.0898 16.6705 76.4898 16.6705C78.8898 16.6705 81.1498 17.6105 82.8498 19.3105C86.3698 22.8205 86.3698 28.5305 82.8598 32.0405ZM14.2498 23.1105C17.8798 24.4505 20.7298 27.3005 22.0598 30.9205C22.3498 31.7105 23.0998 32.2305 23.9398 32.2305C24.7798 32.2305 25.5298 31.7105 25.8198 30.9205C27.1598 27.2905 30.0098 24.4405 33.6298 23.1105C34.4198 22.8205 34.9398 22.0705 34.9398 21.2305C34.9398 20.3905 34.4198 19.6405 33.6298 19.3505C29.9998 18.0105 27.1498 15.1605 25.8198 11.5405C25.5298 10.7505 24.7798 10.2305 23.9398 10.2305C23.0998 10.2305 22.3498 10.7505 22.0598 11.5405C20.7198 15.1705 17.8698 18.0205 14.2498 19.3505C13.4598 19.6405 12.9398 20.3905 12.9398 21.2305C12.9398 22.0705 13.4698 22.8205 14.2498 23.1105ZM39.2498 13.1105C42.8798 14.4505 45.7298 17.3005 47.0598 20.9205C47.3498 21.7105 48.0998 22.2305 48.9398 22.2305C49.7798 22.2305 50.5298 21.7105 50.8198 20.9205C52.1598 17.2905 55.0098 14.4405 58.6298 13.1105C59.4198 12.8205 59.9398 12.0705 59.9398 11.2305C59.9398 10.3905 59.4198 9.64047 58.6298 9.35047C54.9998 8.01047 52.1498 5.16047 50.8198 1.54047C50.5298 0.750469 49.7798 0.230469 48.9398 0.230469C48.0998 0.230469 47.3498 0.750469 47.0598 1.54047C45.7198 5.17047 42.8698 8.02047 39.2498 9.35047C38.4598 9.64047 37.9398 10.3905 37.9398 11.2305C37.9398 12.0705 38.4698 12.8205 39.2498 13.1105Z" fill="#08458C"/>
</svg>
